<?xml version="1.0" encoding="utf-8"?>
<!-- Generator: Adobe Illustrator 16.0.0, SVG Export Plug-In . SVG Version: 6.00 Build 0)  -->
<!DOCTYPE svg PUBLIC "-//W3C//DTD SVG 1.1//EN" "http://www.w3.org/Graphics/SVG/1.1/DTD/svg11.dtd">
<svg version="1.1" id="Camada_1" xmlns="http://www.w3.org/2000/svg" xmlns:xlink="http://www.w3.org/1999/xlink" x="0px" y="0px"
	 width="422px" height="282px" viewBox="102.5 98.5 422 282" enable-background="new 102.5 98.5 422 282" xml:space="preserve">
<g>
	<path fill="#FFFFFF" d="M407.996,225.501c0-2.514,0-4.16,0-5.807c0.001-24.322-0.004-48.644,0.009-72.965
		c0.002-2.667,0.043-2.7,2.65-2.703c10.162-0.014,20.323-0.008,30.485-0.005c3.031,0.001,2.844-0.353,2.843,3.025
		c-0.01,32.651-0.007,65.302-0.007,97.953c0,10.828,0.009,21.656-0.007,32.484c-0.004,2.453-0.044,2.508-2.343,2.512
		c-11.661,0.021-23.322-0.038-34.982,0.062c-1.706,0.015-2.986-0.466-3.781-1.782c-2.826-4.681-7.68-7.605-10.502-12.295
		c-0.668-1.11-1.833-1.921-2.766-2.873c-4.359-4.45-8.363-9.205-12.187-14.119c-0.405-0.522-0.938-0.945-1.389-1.435
		c-4.254-4.607-8.637-9.104-12.721-13.858c-5.246-6.107-10.634-12.08-15.996-18.081c-4.915-5.499-9.681-11.133-14.835-16.785
		c-0.733,1.663-0.409,3.126-0.411,4.524c-0.024,23.989-0.019,47.978-0.019,71.966c0,1.166-0.012,2.333-0.002,3.499
		c0.007,0.806-0.375,1.194-1.182,1.183c-0.666-0.009-1.333,0.004-2,0.004c-9.828,0-19.656,0.01-29.485-0.006
		c-3.307-0.005-3.327-0.034-3.328-3.54c-0.006-29.152-0.003-58.305-0.003-87.458c0-13.16,0-26.321,0-39.481c0-1-0.02-2,0.003-2.999
		c0.036-1.55,0.824-2.425,2.395-2.499c0.831-0.04,1.666-0.004,2.499-0.004c10.495,0,20.99,0.041,31.485-0.034
		c2.098-0.015,3.701,0.416,5.233,2.033c4.858,5.124,9.581,10.35,13.893,15.946c0.505,0.655,1.179,1.177,1.735,1.795
		c6.28,6.963,12.669,13.833,18.788,20.936c4.385,5.089,8.697,10.229,13.211,15.213c5.699,6.293,11.015,12.931,16.572,19.354
		C403.594,221.271,405.582,223.064,407.996,225.501z"/>
	<path fill="#FFFFFF" d="M227.988,280.022c-14.162,0-28.324,0.007-42.486-0.007c-2.438-0.002-2.484-0.046-2.49-2.356
		c-0.021-8.497,0.039-16.995-0.049-25.491c-0.018-1.737,0.411-2.269,2.207-2.243c7.33,0.105,14.661,0.063,21.992,0.033
		c3.35-0.014,3.788-0.418,3.791-3.59c0.019-22.992,0.016-45.985,0.001-68.977c-0.001-2.342-0.051-2.39-2.473-2.397
		c-7.831-0.024-15.662-0.041-23.492,0.018c-1.449,0.01-2.029-0.331-2.018-1.906c0.064-9.163,0.057-18.327,0.005-27.49
		c-0.008-1.41,0.617-1.684,1.797-1.605c0.829,0.055,1.666,0.01,2.499,0.01c27.491,0,54.981,0,82.473,0
		c0.833,0,1.669,0.047,2.499-0.012c1.209-0.086,1.776,0.257,1.77,1.635c-0.052,9.164-0.063,18.328,0.007,27.491
		c0.012,1.622-0.634,1.887-2.047,1.877c-7.831-0.053-15.662-0.039-23.492-0.016c-2.398,0.007-2.448,0.053-2.449,2.408
		c-0.013,22.993-0.017,45.985,0.002,68.978c0.002,3.178,0.428,3.565,3.801,3.58c7.331,0.031,14.663,0.072,21.992-0.032
		c1.801-0.025,2.219,0.52,2.201,2.251c-0.088,8.497-0.028,16.994-0.048,25.491c-0.006,2.301-0.053,2.344-2.505,2.347
		C256.979,280.03,242.483,280.023,227.988,280.022z"/>
	<path fill="#FFFFFF" d="M489.264,212.874c-2.164-2.844-5.346-3.821-7.258-6.322c-2.57-3.363-4.411-6.829-5.171-11.188
		c-1.264-7.252-0.616-14.474-0.75-21.702c-0.178-9.49-0.033-18.985-0.091-28.478c-0.008-1.295,0.154-2.586-0.249-3.916
		c-2.004-6.6-4.109-8.216-11.139-8.271c-2.498-0.02-4.997-0.044-7.494-0.005c-1.281,0.02-2.197-0.03-2.132-1.792
		c0.131-3.493,0.079-6.994,0.019-10.49c-0.022-1.246,0.326-1.772,1.661-1.753c4.662,0.068,9.369-0.352,13.979,0.156
		c5.058,0.557,10.165,1.72,14.151,5.258c4.854,4.308,7.059,10.055,7.144,16.356c0.215,15.818,0.032,31.642,0.146,47.463
		c0.026,3.679,0.726,7.309,2.322,10.722c1.942,4.149,5.484,5.682,9.7,6.082c1.816,0.172,3.663-0.016,5.493,0.051
		c1.552,0.056,2.373,0.928,2.376,2.508c0.004,1.666,0.015,3.331-0.002,4.997c-0.021,1.985,0.625,4.41-0.283,5.841
		c-1.058,1.667-3.682,0.359-5.597,0.654c-5.657,0.871-10.645,2.829-12.476,8.897c-0.873,2.897-1.588,5.891-1.587,8.987
		c0.006,15.488-0.061,30.978,0,46.464c0.022,5.91-2.067,11.07-5.63,15.521c-2.657,3.322-6.623,5.058-10.729,6.027
		c-6.304,1.489-12.756,1.024-19.163,1.054c-1.004,0.005-1.505-0.309-1.496-1.389c0.027-3.664,0.07-7.329-0.021-10.991
		c-0.035-1.416,0.606-1.656,1.781-1.628c1.998,0.046,4.031-0.224,5.987,0.062c2.722,0.396,5.188-0.695,7.629-1.277
		c4.219-1.007,4.791-5.116,5.575-8.701c0.243-1.115,0.066-2.323,0.067-3.489c0.006-12.99,0.169-25.983-0.08-38.969
		c-0.08-4.152,0.588-8.179,1.229-12.16c0.484-3.027,1.996-6.088,4.295-8.445C483.763,216.664,485.874,214.094,489.264,212.874z"/>
	<path fill="#FFFFFF" d="M137.167,212.571c6.012,2.814,10.357,7.281,12.336,13.605c0.896,2.859,1.498,5.907,1.484,9.028
		c-0.062,14.826-0.032,29.653,0.018,44.479c0.006,1.442-0.299,2.91,0.47,4.354c0.961,1.806,0.878,4.235,2.703,5.498
		c2.413,1.669,5.359,2.05,8.186,2.371c2.632,0.299,5.326,0.128,7.989,0.058c1.356-0.036,1.662,0.557,1.641,1.781
		c-0.057,3.497-0.051,6.997,0,10.495c0.019,1.216-0.287,1.799-1.653,1.764c-3.162-0.082-6.336-0.153-9.492,0.008
		c-2.979,0.152-5.691-1.605-8.691-1.027c-6.938-2.402-13.244-5.262-15.445-13.432c-0.849-3.151-1.754-6.156-1.747-9.436
		c0.031-13.827-0.09-27.655,0.062-41.48c0.041-3.799-0.151-7.586-1.13-11.159c-1.299-4.743-3.416-8.192-9.053-9.589
		c-2.759-0.684-5.449-0.829-8.21-0.848c-0.896-0.006-1.648-0.05-1.645-1.234c0.015-3.832,0.017-7.663,0.011-11.495
		c-0.002-1.124,0.634-1.325,1.601-1.29c1.497,0.055,3.007-0.095,4.496,0.027c7.253,0.596,12.19-4.693,13.111-11.352
		c0.544-3.935,0.711-7.805,0.732-11.712c0.071-13.494,0.049-26.987,0.043-40.481c-0.002-3.772,1.156-7.21,2.574-10.666
		c2.674-6.516,7.987-9.212,14.338-10.89c6.201-1.638,12.462-0.645,18.688-0.956c1.051-0.053,1.415,0.454,1.405,1.481
		c-0.036,3.665-0.063,7.331,0.012,10.994c0.031,1.492-0.809,1.525-1.888,1.518c-2.666-0.019-5.332-0.032-7.996,0.039
		c-0.961,0.026-1.9-0.034-2.904,0.279c-6.656,2.077-8.208,4.053-8.226,11.17c-0.035,13.827-0.167,27.656,0.063,41.479
		c0.066,3.988-0.417,7.935-1.258,11.646c-1.184,5.223-4.185,9.712-9.194,12.528C139.407,210.797,137.715,211.012,137.167,212.571z"
		/>
	<path fill="#FFFFFF" d="M291.014,335.167c0,6.289,0,12.578,0,18.867c0,1.165,0.021,2.33-0.006,3.495
		c-0.052,2.383-0.062,2.405-2.431,2.435c-2.329,0.029-4.659,0.025-6.989,0.003c-2.497-0.025-2.551-0.042-2.555-2.3
		c-0.019-12.48-0.026-24.961,0.004-37.442c0.006-2.501,0.676-3.095,3.188-3.185c0.831-0.029,1.664-0.004,2.496-0.004
		c7.473-0.001,8.104,0.057,12.499,5.895c2.305,3.062,5.022,5.643,7.631,8.368c3.221,3.365,6.55,6.627,9.839,9.928
		c0.232,0.234,0.515,0.419,0.875,0.709c0.754-1.198,0.371-2.501,0.381-3.711c0.048-6.489,0.037-12.979,0.01-19.469
		c-0.006-1.204,0.307-1.802,1.68-1.747c2.492,0.101,4.993-0.03,7.486,0.046c2.162,0.066,2.808,0.735,2.813,3.044
		c0.033,12.314,0.037,24.628-0.004,36.943c-0.007,2.256-0.672,2.799-2.941,2.928c-0.166,0.01-0.333,0.003-0.5,0.001
		c-2.983-0.024-6.264,0.713-8.866-0.296c-2.421-0.938-4.181-3.681-6.13-5.727c-5.124-5.38-10.21-10.798-15.269-16.241
		c-0.875-0.941-1.543-2.075-2.309-3.12C291.616,334.78,291.315,334.973,291.014,335.167z"/>
	<path fill="#FFFFFF" d="M399,326.16c0.03-2.45-0.83-4.32-2.4-6.13c-1.739-2-4.1-2.37-6.409-2.98c-0.311-0.08-0.66-0.01-0.99-0.01
		c-9.811,0-19.61-0.06-29.42,0.02c-6.101,0.04-9.721,3.7-9.73,9.61c-0.02,7.98-0.02,15.95,0.01,23.93
		c0.011,1.27,0.021,2.45,0.631,3.78c1.79,3.93,4.93,5.42,8.85,5.55c4.979,0.16,9.97,0.04,14.96,0.04c4.82,0,9.64,0.04,14.46-0.01
		c6.32-0.08,9.99-3.72,10.01-9.87C398.98,342.12,398.92,334.14,399,326.16z M387,348.25c0.01,1.21-0.27,1.77-1.64,1.76
		c-7.16-0.06-14.32-0.03-21.471-0.02c-1.08,0-1.899-0.02-1.89-1.51c0.05-6.66,0.05-13.32,0-19.97c-0.01-1.51,0.85-1.5,1.9-1.49
		c3.67,0.01,7.33,0,10.989,0c3.33,0,6.66,0.02,9.99-0.01c1.24-0.01,2.18-0.02,2.15,1.77C386.929,335.27,386.969,341.76,387,348.25z"
		/>
	<path fill="#FFFFFF" d="M441.048,345.242c4.738,4.767,9.399,9.456,14.642,14.728c-5.566,0-10.359-0.046-15.15,0.032
		c-1.211,0.02-1.715-0.816-2.479-1.395c-4.757-3.604-8.825-7.949-13.1-12.075c-0.685-0.66-1.188-1.585-2.398-1.538
		c-1.992,0.079-3.999-0.061-5.979,0.127c-0.684,0.065-0.566,1.058-0.565,1.711c0.004,3.831-0.035,7.662,0.021,11.492
		c0.021,1.316-0.497,1.716-1.758,1.663c-3.297-0.138-6.598-0.184-9.896-0.266c-0.782-3.092-0.268-6.236-0.337-9.354
		c-0.103-4.495,0.041-8.995-0.062-13.49c-0.037-1.605,0.598-1.911,2.023-1.904c9.66,0.046,19.319,0.029,28.979,0.017
		c1.283-0.002,2.854,0.434,3.523-1.094c0.803-1.834,0.691-3.834,0.063-5.707c-0.245-0.729-0.976-1.269-1.969-1.213
		c-1.328,0.074-2.664,0.021-3.996,0.021c-8.661,0-17.322,0.01-25.982-0.007c-2.546-0.005-2.604-0.041-2.598-2.252
		c0.021-8.574-1.002-7.714,7.674-7.707c9.994,0.009,19.987-0.002,29.98,0.004c6.727,0.004,9.291,2.635,9.296,9.517
		c0.003,2.998,0.02,5.996-0.003,8.994c-0.039,5.198-3.24,8.754-8.473,9.452C442.038,345.062,441.571,345.154,441.048,345.242z"/>
	<path fill="#FFFFFF" d="M225.046,335.499c0-5-0.031-9.999,0.012-14.998c0.024-2.929,0.52-3.507,3.419-3.427
		c2.775,0.077,5.596-0.58,8.333,0.373c0.071,2.643,0.196,5.285,0.207,7.928c0.027,7.333-0.001,14.665,0.014,21.997
		c0.005,2.541,0.036,2.59,2.256,2.598c6.833,0.026,13.666-0.047,20.497,0.051c1.73,0.024,2.272-0.397,2.251-2.201
		c-0.098-8.498-0.044-16.997-0.044-25.496c0-1.167,0.027-2.334-0.004-3.5c-0.03-1.124,0.139-1.88,1.598-1.818
		c2.495,0.106,5-0.028,7.497,0.045c2.243,0.065,2.836,0.673,2.875,2.991c0.063,3.665,0.018,7.332,0.018,10.999
		c0,6.499,0.021,12.998-0.008,19.498c-0.022,5.346-3.597,9.294-8.987,9.381c-10.33,0.166-20.666,0.175-30.995-0.003
		c-5.431-0.094-8.902-4-8.93-9.419C225.027,345.498,225.047,340.499,225.046,335.499z"/>
	<path fill="#FFFFFF" d="M219.979,335.292c0,4.992,0.012,9.983-0.004,14.975c-0.02,5.935-3.625,9.6-9.679,9.684
		c-5.822,0.081-11.646,0.019-17.471,0.019c-3.993,0-7.987-0.019-11.979,0.006c-2.506,0.016-4.723-0.691-6.677-2.296
		c-1.644-1.351-2.492-2.946-2.238-5.142c0.279-2.425-0.42-4.914,0.422-7.313c2.302-0.075,4.604-0.153,6.906-0.223
		c0.498-0.015,1.003,0.042,1.496-0.01c1.569-0.164,2.677,0.11,2.29,2.097c-0.093,0.481,0.017,0.997-0.016,1.495
		c-0.068,1.071,0.462,1.41,1.473,1.407c7.321-0.02,14.643-0.021,21.963,0.004c0.984,0.003,1.539-0.241,1.536-1.343
		c-0.019-6.822-0.013-13.644-0.012-20.466c0-0.812-0.396-1.185-1.197-1.158c-0.167,0.006-0.335,0.017-0.499-0.003
		c-2.08-0.25-4.256,0.556-6.254-0.572c-0.007-2.823-0.038-5.646-0.007-8.469c0.01-0.862,0.688-0.952,1.391-0.951
		c5.657,0.008,11.315,0.047,16.972-0.026c1.442-0.019,1.602,0.675,1.597,1.814C219.965,324.31,219.979,329.801,219.979,335.292z"/>
	<path fill="#FFFFFF" d="M344.98,338.497c0,6.49-0.031,12.98,0.025,19.47c0.013,1.42-0.279,2.104-1.894,2.036
		c-2.824-0.118-5.658-0.105-8.483-0.005c-1.407,0.05-1.644-0.592-1.642-1.77c0.021-13.146,0.043-26.293-0.022-39.439
		c-0.009-1.761,0.883-1.798,2.151-1.763c3.14,0.086,6.28,0.122,9.42,0.177c0.951,3.066,0.314,6.209,0.412,9.313
		C345.075,330.506,344.98,334.503,344.98,338.497z"/>
</g>
</svg>
